<svg id="Layer_1" data-name="Layer 1" xmlns="http://www.w3.org/2000/svg" width="372.29" height="135.26" viewBox="0 0 372.29 135.26">
  <defs>
    <style>
      .cls-1 {
        fill: none;
        stroke: #7f0f0f;
        stroke-miterlimit: 10;
        stroke-width: 2px;
      }
    </style>
  </defs>
  <path class="cls-1" d="M191.55,19.67l.78.12"/>
  <g>
    <path d="M72.85,7.38H90.37q6.24,0,9.48,3T103.09,19a11.72,11.72,0,0,1-1.23,5.67,10.34,10.34,0,0,1-3.75,3.81A14.21,14.21,0,0,1,102.4,30a9.31,9.31,0,0,1,2.88,2.43,9.08,9.08,0,0,1,1.59,3.24,14.85,14.85,0,0,1,.48,3.84,13.58,13.58,0,0,1-1.11,5.64,11.46,11.46,0,0,1-3.12,4.14,13.34,13.34,0,0,1-4.89,2.52,23.13,23.13,0,0,1-6.48.84H72.85ZM84.61,25.14h2.16q5.52,0,5.52-4.38t-5.52-4.38H84.61Zm0,18.36h2.58q4.44,0,6.36-1.14a3.94,3.94,0,0,0,1.92-3.66A3.94,3.94,0,0,0,93.55,35q-1.92-1.14-6.36-1.14H84.61Z"/>
    <path d="M126.13,7.38V52.62H114.37V7.38Z"/>
    <path d="M160.45,19a14.52,14.52,0,0,0-3.84-2.31,10.2,10.2,0,0,0-3.72-.75A6,6,0,0,0,149.17,17a3.37,3.37,0,0,0-1.44,2.82,2.81,2.81,0,0,0,.72,2,6.27,6.27,0,0,0,1.89,1.35,16.18,16.18,0,0,0,2.64,1q1.47.42,2.91.9,5.76,1.92,8.43,5.13A12.66,12.66,0,0,1,167,38.52a16.29,16.29,0,0,1-1.17,6.3,13.15,13.15,0,0,1-3.42,4.83,15.78,15.78,0,0,1-5.52,3.12,23,23,0,0,1-7.41,1.11,27.25,27.25,0,0,1-15.9-5.1l5-9.48a20.44,20.44,0,0,0,5.22,3.48,12.55,12.55,0,0,0,5.1,1.14,6.09,6.09,0,0,0,4.29-1.32,4.09,4.09,0,0,0,1.05-4.77,3.83,3.83,0,0,0-1.2-1.38,9.62,9.62,0,0,0-2.19-1.17q-1.35-.54-3.27-1.2-2.28-.72-4.47-1.59a14.07,14.07,0,0,1-3.9-2.31,10.73,10.73,0,0,1-2.76-3.63,12.84,12.84,0,0,1-1-5.55,16,16,0,0,1,1.11-6.09,13.53,13.53,0,0,1,3.12-4.68,13.91,13.91,0,0,1,4.92-3,18.6,18.6,0,0,1,6.51-1.08,28.5,28.5,0,0,1,7,.93,31,31,0,0,1,7,2.73Z"/>
    <path d="M191.83,17.34V52.62H180.07V17.34h-9.66v-10h31.08v10Z"/>
    <path d="M244.33,52.62H229.69l-11.22-17.4v17.4H206.71V7.38H225a18,18,0,0,1,6.6,1.11A12.43,12.43,0,0,1,239,16a15.47,15.47,0,0,1,.93,5.4,13.27,13.27,0,0,1-2.49,8.37,12.54,12.54,0,0,1-7.35,4.35Zm-25.86-25h2.22A8.57,8.57,0,0,0,226,26.16,4.92,4.92,0,0,0,227.89,22,4.92,4.92,0,0,0,226,17.88a8.57,8.57,0,0,0-5.34-1.44h-2.22Z"/>
    <path d="M246.37,30A23.31,23.31,0,0,1,261.28,8a28.76,28.76,0,0,1,20.19,0A23.84,23.84,0,0,1,289.42,13a23.2,23.2,0,0,1,5.19,7.59A23.63,23.63,0,0,1,296.47,30a23.63,23.63,0,0,1-1.86,9.39A23.2,23.2,0,0,1,289.42,47a23.84,23.84,0,0,1-7.95,5.07,28.76,28.76,0,0,1-20.19,0,23.4,23.4,0,0,1-14.91-22Zm12.3,0a12.05,12.05,0,0,0,1,5,12.46,12.46,0,0,0,6.81,6.57,13.32,13.32,0,0,0,9.78,0,12.83,12.83,0,0,0,4.08-2.61,12.36,12.36,0,0,0,2.79-4,12.67,12.67,0,0,0,0-10,12.36,12.36,0,0,0-2.79-4,12.83,12.83,0,0,0-4.08-2.61,13.32,13.32,0,0,0-9.78,0A12.46,12.46,0,0,0,259.69,25,12.05,12.05,0,0,0,258.67,30Z"/>
    <path d="M6.49,79.38H24q6.24,0,9.48,3T36.73,91a11.72,11.72,0,0,1-1.23,5.67,10.34,10.34,0,0,1-3.75,3.81A14.21,14.21,0,0,1,36,102a9.31,9.31,0,0,1,2.88,2.43,9.08,9.08,0,0,1,1.59,3.24,14.85,14.85,0,0,1,.48,3.84,13.58,13.58,0,0,1-1.11,5.64,11.46,11.46,0,0,1-3.12,4.14,13.34,13.34,0,0,1-4.89,2.52,23.13,23.13,0,0,1-6.48.84H6.49ZM18.25,97.14h2.16q5.52,0,5.52-4.38t-5.52-4.38H18.25Zm0,18.36h2.58q4.44,0,6.36-1.14a4.45,4.45,0,0,0,0-7.32q-1.92-1.14-6.36-1.14H18.25Z"/>
    <path d="M75.07,116.76H58.27l-2.7,7.86H43L60.25,79.38H73.09l17.22,45.24H77.77ZM72,107.82,66.67,92.76l-5.28,15.06Z"/>
    <path d="M95.47,79.38H113q6.24,0,9.48,3T125.71,91a11.72,11.72,0,0,1-1.23,5.67,10.34,10.34,0,0,1-3.75,3.81A14.21,14.21,0,0,1,125,102a9.31,9.31,0,0,1,2.88,2.43,9.08,9.08,0,0,1,1.59,3.24,14.85,14.85,0,0,1,.48,3.84,13.58,13.58,0,0,1-1.11,5.64,11.46,11.46,0,0,1-3.12,4.14,13.34,13.34,0,0,1-4.89,2.52,23.13,23.13,0,0,1-6.48.84H95.47Zm11.76,17.76h2.16q5.52,0,5.52-4.38t-5.52-4.38h-2.16Zm0,18.36h2.58q4.44,0,6.36-1.14a4.45,4.45,0,0,0,0-7.32q-1.92-1.14-6.36-1.14h-2.58Z"/>
    <path d="M148.75,79.38V104q0,2,.15,4a11.1,11.1,0,0,0,.9,3.75,6.24,6.24,0,0,0,2.37,2.73,8.36,8.36,0,0,0,4.56,1,8.2,8.2,0,0,0,4.53-1,6.51,6.51,0,0,0,2.37-2.73,10.66,10.66,0,0,0,.93-3.75q.15-2.07.15-4V79.38h11.7V105.6q0,10.56-4.83,15.42t-14.85,4.86q-10,0-14.88-4.86T137,105.6V79.38Z"/>
    <path d="M210.73,91a14.52,14.52,0,0,0-3.84-2.31,10.2,10.2,0,0,0-3.72-.75A6,6,0,0,0,199.45,89,3.37,3.37,0,0,0,198,91.8a2.81,2.81,0,0,0,.72,2,6.27,6.27,0,0,0,1.89,1.35,16.18,16.18,0,0,0,2.64,1q1.47.42,2.91.9,5.76,1.92,8.43,5.13a12.66,12.66,0,0,1,2.67,8.37,16.29,16.29,0,0,1-1.17,6.3,13.15,13.15,0,0,1-3.42,4.83,15.78,15.78,0,0,1-5.52,3.12,23,23,0,0,1-7.41,1.11,27.25,27.25,0,0,1-15.9-5.1l5-9.48a20.44,20.44,0,0,0,5.22,3.48,12.55,12.55,0,0,0,5.1,1.14,6.09,6.09,0,0,0,4.29-1.32,4.09,4.09,0,0,0,1.05-4.77,3.83,3.83,0,0,0-1.2-1.38,9.62,9.62,0,0,0-2.19-1.17q-1.35-.54-3.27-1.2-2.28-.72-4.47-1.59a14.07,14.07,0,0,1-3.9-2.31,10.73,10.73,0,0,1-2.76-3.63,12.84,12.84,0,0,1-1-5.55,16,16,0,0,1,1.11-6.09,13.53,13.53,0,0,1,3.12-4.68,13.91,13.91,0,0,1,4.92-3,18.6,18.6,0,0,1,6.51-1.08,28.5,28.5,0,0,1,7,.93,31,31,0,0,1,7,2.73Z"/>
    <path d="M236.41,96.84h17V79.38h11.76v45.24H253.39V106h-17v18.66H224.65V79.38h11.76Z"/>
    <path d="M286.39,98l14.34-18.66h14.52L297.31,100.8l19.62,23.82H301.69L286.39,105v19.62H274.63V79.38h11.76Z"/>
    <path d="M349.87,116.76h-16.8l-2.7,7.86H317.83l17.22-45.24h12.84l17.22,45.24H352.57Zm-3.12-8.94-5.28-15.06-5.28,15.06Z"/>
  </g>
</svg>
