<?xml version="1.0" standalone="no"?>
<!DOCTYPE svg PUBLIC "-//W3C//DTD SVG 20010904//EN"
 "http://www.w3.org/TR/2001/REC-SVG-20010904/DTD/svg10.dtd">
<svg version="1.0" xmlns="http://www.w3.org/2000/svg"
 width="916.000000pt" height="916.000000pt" viewBox="0 0 916.000000 916.000000"
 preserveAspectRatio="xMidYMid meet">
<metadata>
Created by potrace 1.11, written by Peter Selinger 2001-2013
</metadata>
<g transform="translate(0.000000,916.000000) scale(0.100000,-0.100000)"
fill="#000000" stroke="none">
<path d="M4419 9156 c-2 -2 -35 -7 -74 -11 -38 -3 -79 -8 -90 -10 -11 -3 -36
-7 -55 -10 -140 -20 -327 -72 -440 -122 -79 -35 -196 -95 -224 -116 -6 -4 -30
-20 -52 -35 -92 -60 -245 -202 -304 -281 -14 -18 -34 -45 -46 -59 -35 -46 -94
-140 -94 -150 0 -6 -3 -12 -7 -14 -16 -7 -148 -288 -136 -288 3 0 1 -6 -4 -12
-12 -16 -37 -114 -48 -193 -2 -11 -4 -20 -5 -20 -3 0 -9 -41 -15 -95 -3 -31
-7 -67 -10 -80 -3 -14 -7 -65 -10 -115 -3 -49 -8 -117 -10 -150 -2 -33 -7
-121 -10 -195 -3 -74 -8 -187 -11 -250 -2 -63 -7 -146 -9 -185 -2 -38 -6 -114
-9 -167 -3 -54 -8 -115 -10 -135 -3 -21 -8 -69 -12 -108 -3 -38 -8 -77 -9 -85
-1 -8 -6 -40 -9 -70 -4 -30 -11 -77 -16 -105 -5 -27 -12 -65 -15 -83 -22 -133
-193 -686 -250 -809 -8 -17 -15 -34 -15 -38 0 -6 -17 -51 -55 -150 -5 -11 -9
-22 -10 -25 -1 -3 -7 -18 -13 -33 -7 -16 -12 -31 -12 -34 0 -3 -6 -19 -14 -36
-8 -18 -47 -113 -87 -212 -39 -99 -79 -198 -89 -220 -79 -181 -117 -317 -146
-520 -3 -27 -8 -59 -10 -69 -12 -69 -19 -227 -19 -456 0 -269 9 -423 31 -585
3 -22 7 -53 9 -70 5 -46 21 -154 31 -205 3 -14 7 -37 9 -52 9 -64 31 -179 40
-218 3 -14 8 -36 10 -50 2 -14 9 -47 15 -75 6 -27 13 -57 15 -65 2 -8 12 -53
24 -100 11 -47 22 -96 25 -110 3 -14 10 -41 15 -60 6 -19 19 -69 30 -110 10
-41 25 -93 32 -115 7 -22 12 -44 10 -49 -1 -4 4 -14 10 -22 6 -8 9 -14 6 -14
-4 0 1 -19 9 -42 9 -24 17 -51 19 -61 5 -25 46 -158 56 -182 4 -11 24 -69 43
-130 19 -60 56 -168 81 -240 26 -71 52 -148 59 -170 7 -22 30 -83 50 -135 20
-52 55 -142 77 -200 22 -58 47 -119 55 -137 23 -52 99 -88 234 -113 30 -6 66
-12 80 -15 14 -3 45 -8 70 -11 25 -3 57 -7 73 -10 62 -10 131 -16 312 -29 55
-4 120 -8 145 -10 275 -20 1342 -28 1670 -12 238 12 399 22 500 32 19 2 62 6
95 9 33 3 74 7 90 10 17 2 50 8 75 12 25 4 56 8 70 10 94 10 222 50 268 83 16
11 36 40 45 63 9 24 22 57 28 73 7 17 13 32 13 35 1 5 60 157 76 195 4 11 22
61 40 110 17 50 35 97 39 105 8 16 190 562 196 589 5 20 66 231 73 251 3 8 6
20 7 25 2 6 10 37 19 70 10 33 31 114 47 180 16 66 32 127 34 135 18 73 82
381 90 440 1 8 6 33 10 55 13 66 15 78 21 125 3 25 7 56 10 70 2 14 6 45 9 70
3 25 7 61 10 80 3 19 8 67 11 105 3 39 8 86 11 105 3 19 6 172 6 340 2 266 -3
376 -17 480 -2 14 -7 48 -10 75 -7 51 -49 245 -65 300 -8 27 -169 432 -191
480 -5 11 -23 56 -40 100 -18 44 -35 89 -40 100 -22 53 -75 191 -75 195 -1 3
-11 32 -24 65 -70 179 -209 604 -225 688 -2 12 -13 65 -24 117 -21 100 -29
140 -37 205 -3 22 -8 56 -10 75 -3 19 -7 55 -9 80 -3 25 -7 68 -10 95 -5 47
-11 132 -22 315 -4 76 -10 212 -18 420 -7 169 -20 374 -30 460 -3 25 -8 68
-11 95 -2 28 -7 61 -10 75 -8 43 -16 84 -21 115 -18 105 -134 370 -219 501
-65 99 -144 195 -224 272 -94 90 -98 93 -141 123 -19 13 -37 26 -40 29 -13 15
-114 73 -195 113 -81 41 -292 118 -356 131 -99 20 -137 27 -159 30 -14 3 -44
7 -68 11 -23 4 -54 9 -70 11 -36 6 -418 15 -423 10z"/>
</g>
</svg>
